# xmcd
#
# Track frame offsets: 
#        150
#        12305
#        31950
#        49347
#        67894
#        86421
#        96834
#        114210
#        132393
#        152070
#        174399
#        184499
#        199769
#        210383
#        227541
#        244732
#
# Disc length: 3490 seconds
#
# Revision: 1
# Processed by: cddbd v1.5PL3 Copyright (c) Steve Scherf et al.
# Submitted via: ExactAudioCopy v0.95a5
#
DISCID=ce0da010
DTITLE=Various Artist - 跨世纪欧美乡村音乐大全
DYEAR=2002
DGENRE=Country
TTITLE0=CALIFORNIA DREAMING
TTITLE1=WHEN YOU SAY NOTHING ATALL
TTITLE2=HEATLEATS ACDERUTING
TTITLE3=ALWAYS YOU
TTITLE4=I COULD NEVER TAKE PLAD OF YOU
TTITLE5=QUIZAS QUIZAS QUIZAS
TTITLE6=LOKA
TTITLE7=GET TO ME
TTITLE8=NOOR LOUGH SHIRE
TTITLE9=DONS`T REALLY MATTER
TTITLE10=JINGLE BELL ROCK
TTITLE11=YOU`RE NOT A MEMORY YET
TTITLE12=L`AAUOLBO NISTEL
TTITLE13=BUSTED
TTITLE14=TOM`S DSNER
TTITLE15=ONE
EXTD=
EXTT0=
EXTT1=
EXTT2=
EXTT3=
EXTT4=
EXTT5=
EXTT6=
EXTT7=
EXTT8=
EXTT9=
EXTT10=
EXTT11=
EXTT12=
EXTT13=
EXTT14=
EXTT15=
PLAYORDER=
